# SSTK version 0.8.0
# 45
mtllib original-45.mtl
o RB_11_BC1/RB_11_BC/mesh32/mesh32-geometry#mesh32-geometry
v 0.611958 -0.250080 0.322983
v 0.190328 -0.249171 0.325033
v 0.190328 -0.250080 0.322983
v 0.611958 -0.249171 0.325033
v 0.611958 -0.250762 0.321996
v 0.190328 -0.249173 0.328449
v 0.190328 -0.250762 0.321996
v 0.611958 -0.249173 0.328449
v 0.611958 -0.251521 0.321237
v 0.190328 -0.248340 0.330119
v 0.190328 -0.251521 0.321237
v 0.611958 -0.248340 0.330119
v 0.190328 -0.252431 0.320629
v 0.611958 -0.247809 0.330499
v 0.611958 -0.252431 0.320629
v 0.190328 -0.247809 0.330499
v 0.190328 -0.254555 0.319868
v 0.611958 -0.246671 0.331031
v 0.611958 -0.254555 0.319868
v 0.190328 -0.246671 0.331031
v 0.190328 -0.272776 0.316972
v 0.611958 -0.240511 0.331031
v 0.611958 -0.272776 0.316972
v 0.190328 -0.240511 0.331031
v 0.190328 -0.286280 0.311346
v 0.611958 -0.286280 0.311346
v 0.190328 -0.313705 0.310580
v 0.611958 -0.313705 0.310580
v 0.611958 -0.313711 0.318841
v 0.190328 -0.313711 0.318841
v 0.611958 -0.314775 0.320965
v 0.190328 -0.314775 0.320965
v 0.611958 -0.316205 0.322938
v 0.190328 -0.316205 0.322938
v 0.190328 -0.319471 0.326123
v 0.611958 -0.319471 0.326123
v 0.190328 -0.321520 0.327184
v 0.611958 -0.321520 0.327184
v 0.190328 -0.323722 0.327790
v 0.611958 -0.323722 0.327790
v 0.611958 -0.323724 0.330992
v 0.190328 -0.323724 0.330992
v 0.190328 -0.412496 0.330992
v 0.611958 -0.412496 0.330992
v 0.611958 -0.413103 0.330916
v 0.190328 -0.413103 0.330916
v 0.190328 -0.413406 0.330764
v 0.611958 -0.413406 0.330764
v 0.611958 -0.413785 0.330384
v 0.190328 -0.413785 0.330384
v 0.611958 -0.413937 0.330156
v 0.190328 -0.413937 0.330156
v 0.611958 -0.414164 0.329624
v 0.190328 -0.414164 0.329624
v 0.611958 -0.414162 0.326133
v 0.190328 -0.414162 0.326133
v 0.190328 -0.416818 0.325600
v 0.611958 -0.416818 0.325600
v 0.190328 -0.419245 0.324612
v 0.611958 -0.419245 0.324612
v 0.611958 -0.421445 0.323168
v 0.190328 -0.421445 0.323168
v 0.611958 -0.424933 0.319219
v 0.190328 -0.424933 0.319219
v 0.611958 -0.426903 0.314208
v 0.190328 -0.426903 0.314208
v 0.611958 -0.426890 0.296220
v 0.190328 -0.426890 0.296220
v 0.611958 -0.426662 0.295310
v 0.190328 -0.426662 0.295310
v 0.611958 -0.426282 0.294475
v 0.190328 -0.426282 0.294475
v 0.190328 -0.424915 0.293186
v 0.611958 -0.424915 0.293186
v 0.190328 -0.424080 0.292731
v 0.611958 -0.424080 0.292731
v 0.611958 -0.423093 0.292428
v 0.190328 -0.423093 0.292428
v 0.611958 -0.313693 0.292428
v 0.190328 -0.313693 0.292428
v 0.611958 -0.313697 0.298728
v 0.190328 -0.313697 0.298728
v 0.190328 -0.240511 0.298728
v 0.611958 -0.240511 0.298728
vt 0.694993 0.071646
vt 0.506185 0.072014
vt 0.506185 0.071646
vt 0.694993 0.072014
vt 0.694993 0.071369
vt 0.506185 0.072013
vt 0.506185 0.071369
vt 0.694993 0.072013
vt 0.694993 0.071062
vt 0.506185 0.072351
vt 0.506185 0.071062
vt 0.694993 0.072351
vt 0.506185 0.070693
vt 0.694993 0.072566
vt 0.694993 0.070693
vt 0.506185 0.072566
vt 0.506185 0.069833
vt 0.694993 0.073028
vt 0.694993 0.069833
vt 0.506185 0.073028
vt 0.506185 0.062449
vt 0.694993 0.075523
vt 0.694993 0.062449
vt 0.506185 0.075523
vt 0.506185 0.056977
vt 0.694993 0.056977
vt 0.506185 0.045864
vt 0.694993 0.045864
vt 1.259744 -0.582384
vt 1.259747 -0.393576
vt 1.259744 -0.393576
vt 1.259747 -0.582384
vt 1.260178 -0.393576
vt 1.260178 -0.582384
vt 1.260758 -0.393576
vt 1.260758 -0.582384
vt 1.262081 -0.582384
vt 1.262081 -0.393576
vt 1.262911 -0.582384
vt 1.262911 -0.393576
vt 1.263803 -0.582384
vt 1.263803 -0.393576
vt 1.263804 -0.393576
vt 1.263804 -0.582384
vt 1.299776 -0.582384
vt 1.299776 -0.393576
vt 1.300022 -0.393576
vt 1.300022 -0.582384
vt 1.300145 -0.582384
vt 1.300145 -0.393576
vt 1.300299 -0.393576
vt 1.300299 -0.582384
vt 1.30036 -0.393576
vt 1.30036 -0.582384
vt 1.300452 -0.393576
vt 1.300452 -0.582384
vt 1.300451 -0.393576
vt 1.300451 -0.582384
vt 1.301527 -0.582384
vt 1.301527 -0.393576
vt 1.302511 -0.582384
vt 1.302511 -0.393576
vt 1.303403 -0.393576
vt 1.303403 -0.582384
vt 1.304816 -0.393576
vt 1.304816 -0.582384
vt 1.305614 -0.393576
vt 1.305614 -0.582384
vt 1.305609 -0.393576
vt 1.305609 -0.582384
vt 1.305517 -0.393576
vt 1.305517 -0.582384
vt 1.305363 -0.393576
vt 1.305363 -0.582384
vt 1.304809 -0.582384
vt 1.304809 -0.393576
vt 1.30447 -0.582384
vt 1.30447 -0.393576
vt 1.30407 -0.393576
vt 1.30407 -0.582384
vt 1.259739 -0.393576
vt 1.259739 -0.582384
vt 1.259738 -0.564269
vt 1.25974 -0.376542
vt 1.259738 -0.376542
vt 1.25974 -0.564269
vt 0.694993 0.045867
vt 0.506185 0.045867
vn 0 -0.8721911289369207 0.489165242636616
vn 0 -0.9783650276723265 0.20688613445015566
vn 0 -0.7682386913824626 0.6401635049446048
vn 0 -0.9734150125809768 0.2290484954807095
vn 0 -0.6345767196033688 0.7728598753573818
vn 0 -0.7607448114478149 0.6490511011124076
vn 0 -0.4495497158492989 0.8932553123154738
vn 0 -0.5048354609408301 0.8632155914814442
vn 0 -0.24809370241235784 0.9687360398082276
vn 0 -0.4235611021276773 0.9058675359920937
vn 0 -0.2727014530441037 0.962098704659576
vn 0 0 1
vn 0 -0.20976423981219844 0.9777519949844186
vn 0 -0.02792479852045416 0.9996100267742376
vn 0 0.999999759247585 0.000693905448940769
vn 0 0.9730963840362037 0.2303984100979536
vn 0 0.8546755283251164 0.5191625384040949
vn 0 0.75665094576561 0.6538190470397816
vn 0 0.5853923065219773 0.8107501757415039
vn 0 0.3645159734665236 0.9311971354593789
vn 0 0.26529352052390043 0.9641676970154283
vn 0 0.9999997501435686 0.0007069036713757491
vn 0 -0.06249246365460819 0.9980454358326466
vn 0 -0.29048411096842736 0.9568798154809633
vn 0 -0.5853254803465989 0.8107984225792643
vn 0 -0.7738242193996924 0.6334004084861776
vn 0 -0.8796375219936268 0.4756446466648309
vn 0 -0.979722374874381 0.2003598467021345
vn 0 -0.999999759247585 -0.000693905448940769
vn 0 -0.2882229840672607 0.9575633198151251
vn 0 -0.19682181930627693 0.980439274736058
vn 0 -0.46505141802944955 0.8852836712539083
vn 0 -0.6548890062597873 0.7557250753283686
vn 0 -0.8530437302494467 0.5218394334295837
vn 0 -0.9825817914996423 0.18583062991163127
vn 0 -0.9924245714735357 -0.1228554839458495
vn 0 -0.943931251323078 -0.3301420796803225
vn 0 -0.8133414378954568 -0.5817866493845925
vn 0 -0.5870922932904308 -0.8095200054099854
vn 0 -0.38783181750371004 -0.9217301564621659
vn 0 -0.14837280362708732 -0.9889314997227248
vn 0 0 -1
vn 0 0.8721911289369207 -0.489165242636616
vn 0 0.9783650276723265 -0.20688613445015566
vn 0 0.7682386913824626 -0.6401635049446048
vn 0 0.9734150125809768 -0.2290484954807095
vn 0 0.6345767196033688 -0.7728598753573818
vn 0 0.7607448114478149 -0.6490511011124076
vn 0 0.4495497158492989 -0.8932553123154738
vn 0 0.5048354609408301 -0.8632155914814442
vn 0 0.24809370241235784 -0.9687360398082276
vn 0 0.4235611021276773 -0.9058675359920937
vn 0 0.2727014530441037 -0.962098704659576
vn 0 0.20976423981219844 -0.9777519949844186
vn 0 0.02792479852045416 -0.9996100267742376
vn 0 -0.9730963840362037 -0.2303984100979536
vn 0 -0.8546755283251164 -0.5191625384040949
vn 0 -0.75665094576561 -0.6538190470397816
vn 0 -0.5853923065219773 -0.8107501757415039
vn 0 -0.3645159734665236 -0.9311971354593789
vn 0 -0.26529352052390043 -0.9641676970154283
vn 0 -0.9999997501435686 -0.0007069036713757491
vn 0 0.06249246365460819 -0.9980454358326466
vn 0 0.29048411096842736 -0.9568798154809633
vn 0 0.5853254803465989 -0.8107984225792643
vn 0 0.7738242193996924 -0.6334004084861776
vn 0 0.8796375219936268 -0.4756446466648309
vn 0 0.979722374874381 -0.2003598467021345
vn 0 0.19682181930627693 -0.980439274736058
vn 0 0.2882229840672607 -0.9575633198151251
vn 0 0.46505141802944955 -0.8852836712539083
vn 0 0.6548890062597873 -0.7557250753283686
vn 0 0.8530437302494467 -0.5218394334295837
vn 0 0.9825817914996423 -0.18583062991163127
vn 0 0.9924245714735357 0.1228554839458495
vn 0 0.943931251323078 0.3301420796803225
vn 0 0.8133414378954568 0.5817866493845925
vn 0 0.5870922932904308 0.8095200054099854
vn 0 0.38783181750371004 0.9217301564621659
vn 0 0.14837280362708732 0.9889314997227248
usemtl material_0_0
f 1/1/1 2/2/2 3/3/1
f 2/2/2 1/1/1 4/4/2
f 3/3/1 5/5/3 1/1/1
f 4/4/2 6/6/4 2/2/2
f 5/5/3 3/3/1 7/7/3
f 6/6/4 4/4/2 8/8/4
f 7/7/3 9/9/5 5/5/3
f 8/8/4 10/10/6 6/6/4
f 9/9/5 7/7/3 11/11/5
f 10/10/6 8/8/4 12/12/6
f 13/13/7 9/9/5 11/11/5
f 14/14/8 10/10/6 12/12/6
f 9/9/5 13/13/7 15/15/7
f 10/10/6 14/14/8 16/16/8
f 17/17/9 15/15/7 13/13/7
f 18/18/10 16/16/8 14/14/8
f 15/15/7 17/17/9 19/19/9
f 16/16/8 18/18/10 20/20/10
f 21/21/11 19/19/9 17/17/9
f 22/22/12 20/20/12 18/18/12
f 19/19/9 21/21/11 23/23/11
f 20/20/12 22/22/12 24/24/12
f 25/25/13 23/23/11 21/21/11
f 23/23/11 25/25/13 26/26/13
f 27/27/14 26/26/13 25/25/13
f 26/26/13 27/27/14 28/28/14
f 27/29/15 29/30/16 28/31/15
f 29/30/16 27/29/15 30/32/16
f 30/32/16 31/33/17 29/30/16
f 31/33/17 30/32/16 32/34/17
f 32/34/17 33/35/18 31/33/17
f 33/35/18 32/34/17 34/36/18
f 35/37/19 33/35/18 34/36/18
f 33/35/18 35/37/19 36/38/19
f 37/39/20 36/38/19 35/37/19
f 36/38/19 37/39/20 38/40/20
f 39/41/21 38/40/20 37/39/20
f 38/40/20 39/41/21 40/42/21
f 39/41/22 41/43/22 40/42/22
f 41/43/22 39/41/22 42/44/22
f 43/45/23 41/43/12 42/44/12
f 41/43/12 43/45/23 44/46/23
f 43/45/23 45/47/24 44/46/23
f 45/47/24 43/45/23 46/48/24
f 47/49/25 45/47/24 46/48/24
f 45/47/24 47/49/25 48/50/25
f 47/49/25 49/51/26 48/50/25
f 49/51/26 47/49/25 50/52/26
f 50/52/26 51/53/27 49/51/26
f 51/53/27 50/52/26 52/54/27
f 52/54/27 53/55/28 51/53/27
f 53/55/28 52/54/27 54/56/28
f 54/56/28 55/57/29 53/55/28
f 55/57/29 54/56/28 56/58/29
f 57/59/30 55/57/31 56/58/31
f 55/57/31 57/59/30 58/60/30
f 59/61/32 58/60/30 57/59/30
f 58/60/30 59/61/32 60/62/32
f 59/61/32 61/63/33 60/62/32
f 61/63/33 59/61/32 62/64/33
f 62/64/33 63/65/34 61/63/33
f 63/65/34 62/64/33 64/66/34
f 64/66/34 65/67/35 63/65/34
f 65/67/35 64/66/34 66/68/35
f 66/68/35 67/69/36 65/67/35
f 67/69/36 66/68/35 68/70/36
f 68/70/36 69/71/37 67/69/36
f 69/71/37 68/70/36 70/72/37
f 70/72/37 71/73/38 69/71/37
f 71/73/38 70/72/37 72/74/38
f 73/75/39 71/73/38 72/74/38
f 71/73/38 73/75/39 74/76/39
f 75/77/40 74/76/39 73/75/39
f 74/76/39 75/77/40 76/78/40
f 75/77/40 77/79/41 76/78/40
f 77/79/41 75/77/40 78/80/41
f 78/80/41 79/81/42 77/79/41
f 79/81/42 78/80/41 80/82/42
f 80/83/15 81/84/15 79/85/15
f 81/84/15 80/83/15 82/86/15
f 83/24/42 81/87/42 82/88/42
f 81/87/42 83/24/42 84/22/42
usemtl material_1_0
f 3//43 2//44 1//43
f 4//44 1//43 2//44
f 1//43 5//45 3//43
f 2//44 6//46 4//44
f 7//45 3//43 5//45
f 8//46 4//44 6//46
f 5//45 9//47 7//45
f 6//46 10//48 8//46
f 11//47 7//45 9//47
f 12//48 8//46 10//48
f 11//47 9//47 13//49
f 12//48 10//48 14//50
f 15//49 13//49 9//47
f 16//50 14//50 10//48
f 13//49 15//49 17//51
f 14//50 16//50 18//52
f 19//51 17//51 15//49
f 20//52 18//52 16//50
f 17//51 19//51 21//53
f 18//42 20//42 22//42
f 23//53 21//53 19//51
f 24//42 22//42 20//42
f 21//53 23//53 25//54
f 26//54 25//54 23//53
f 25//54 26//54 27//55
f 28//55 27//55 26//54
f 28//29 29//56 27//29
f 30//56 27//29 29//56
f 29//56 31//57 30//56
f 32//57 30//56 31//57
f 31//57 33//58 32//57
f 34//58 32//57 33//58
f 34//58 33//58 35//59
f 36//59 35//59 33//58
f 35//59 36//59 37//60
f 38//60 37//60 36//59
f 37//60 38//60 39//61
f 40//61 39//61 38//60
f 40//62 41//62 39//62
f 42//62 39//62 41//62
f 42//42 41//42 43//63
f 44//63 43//63 41//42
f 44//63 45//64 43//63
f 46//64 43//63 45//64
f 46//64 45//64 47//65
f 48//65 47//65 45//64
f 48//65 49//66 47//65
f 50//66 47//65 49//66
f 49//66 51//67 50//66
f 52//67 50//66 51//67
f 51//67 53//68 52//67
f 54//68 52//67 53//68
f 53//68 55//15 54//68
f 56//15 54//68 55//15
f 56//69 55//69 57//70
f 58//70 57//70 55//69
f 57//70 58//70 59//71
f 60//71 59//71 58//70
f 60//71 61//72 59//71
f 62//72 59//71 61//72
f 61//72 63//73 62//72
f 64//73 62//72 63//73
f 63//73 65//74 64//73
f 66//74 64//73 65//74
f 65//74 67//75 66//74
f 68//75 66//74 67//75
f 67//75 69//76 68//75
f 70//76 68//75 69//76
f 69//76 71//77 70//76
f 72//77 70//76 71//77
f 72//77 71//77 73//78
f 74//78 73//78 71//77
f 73//78 74//78 75//79
f 76//79 75//79 74//78
f 76//79 77//80 75//79
f 78//80 75//79 77//80
f 77//80 79//12 78//80
f 80//12 78//80 79//12
f 79//29 81//29 80//29
f 82//29 80//29 81//29
f 82//12 81//12 83//12
f 84//12 83//12 81//12
