# Exported using automatic converter by Erwin Coumans
mtllib new-1.mtl
v 0.818187 -0.407672 0.161507
v 0.818187 0.457136 0.316363
v 0.818187 -0.407672 0.316363
v 0.818187 0.457136 -0.396009
v 0.818187 -0.407672 0.316363
v 0.818187 0.457136 0.316363
v 0.818187 -0.407672 0.161507
v 0.818187 0.457136 -0.396009
v 0.534144 0.268623 0.316363
v 0.818187 -0.407672 0.316363
v 0.818187 0.457136 0.316363
v 0.818187 0.457136 0.316363
v 0.818187 -0.407672 0.316363
v 0.534144 0.268623 0.316363
v 0.534144 -0.407672 0.316363
v 0.818187 -0.407672 0.161507
v 0.818187 -0.407672 0.316363
v 0.818187 -0.407672 0.316363
v 0.818187 -0.407672 0.161507
v 0.534144 -0.407672 0.316363
v 0.818187 -0.475767 0.079793
v 0.818187 -0.475767 0.079793
v -0.810091 0.457136 -0.396009
v 0.818187 0.457136 0.316363
v 0.818187 0.457136 -0.396009
v 0.818187 0.457136 -0.396009
v 0.818187 0.457136 0.316363
v -0.810091 0.457136 -0.396009
v 0.534144 -0.407672 0.316363
v 0.534144 -0.407672 0.316363
v -0.810091 0.268623 0.316363
v -0.810091 0.268623 0.316363
v -0.810091 -0.407672 0.316363
v -0.810091 -0.407672 0.316363
v 0.818187 -0.475767 -0.396009
v 0.818187 -0.475767 -0.396009
v -0.810091 0.457136 0.316363
v -0.810091 0.457136 0.316363
v 0.818187 -0.475767 -0.396009
v -0.810091 0.457136 -0.396009
v 0.818187 0.457136 -0.396009
v 0.818187 0.457136 -0.396009
v -0.810091 0.457136 -0.396009
v 0.818187 -0.475767 -0.396009
v -0.810091 0.457136 0.316363
v -0.810091 0.457136 0.316363
v -0.810091 -0.407672 0.161507
v -0.810091 -0.407672 0.161507
v -0.810091 0.457136 -0.396009
v -0.810091 0.268623 0.316363
v -0.810091 0.457136 0.316363
v -0.810091 0.457136 0.316363
v -0.810091 0.268623 0.316363
v -0.810091 0.457136 -0.396009
v -0.810091 -0.475767 -0.396009
v -0.810091 -0.475767 -0.396009
v -0.810091 -0.407672 0.161507
v -0.810091 -0.407672 0.316363
v -0.810091 -0.407672 0.316363
v -0.810091 -0.407672 0.161507
v -0.810091 -0.475767 0.079793
v -0.810091 -0.475767 0.079793
v -0.810091 -0.475767 -0.396009
v -0.810091 -0.475767 -0.396009
v 0.508702 -0.382230 0.316363
v 0.508702 -0.382230 0.316363
v -0.784649 0.243181 0.316363
v -0.784649 0.243181 0.316363
v -0.810091 -0.407672 0.316363
v -0.810091 -0.407672 0.316363
v 0.508702 0.243181 0.316363
v 0.508702 0.243181 0.316363
v -0.784649 -0.382230 0.316363
v -0.784649 -0.382230 0.316363
v 0.508702 0.243181 0.316363
v 0.508702 -0.382230 -0.370567
v 0.508702 -0.382230 0.316363
v 0.508702 -0.382230 0.316363
v 0.508702 -0.382230 -0.370567
v 0.508702 0.243181 0.316363
v -0.784649 -0.382230 -0.370567
v -0.784649 0.243181 0.316363
v -0.784649 -0.382230 0.316363
v -0.784649 -0.382230 0.316363
v -0.784649 0.243181 0.316363
v -0.784649 -0.382230 -0.370567
v -0.784649 0.243181 -0.370567
v 0.508702 0.243181 0.316363
v -0.784649 0.243181 0.316363
v -0.784649 0.243181 0.316363
v 0.508702 0.243181 0.316363
v -0.784649 0.243181 -0.370567
v 0.508702 -0.382230 0.316363
v -0.784649 -0.382230 -0.370567
v -0.784649 -0.382230 0.316363
v -0.784649 -0.382230 0.316363
v -0.784649 -0.382230 -0.370567
v 0.508702 -0.382230 0.316363
v 0.508702 0.243181 -0.370567
v 0.508702 0.243181 -0.370567
v 0.508702 -0.382230 -0.370567
v 0.508702 -0.382230 -0.370567
v -0.784649 0.243181 -0.370567
v -0.784649 0.243181 -0.370567
v 0.508702 0.243181 -0.370567
v 0.508702 0.243181 -0.370567
v 0.508702 0.243181 -0.370567
v -0.784649 -0.382230 -0.370567
v 0.508702 -0.382230 -0.370567
v 0.508702 -0.382230 -0.370567
v -0.784649 -0.382230 -0.370567
v 0.508702 0.243181 -0.370567
v -0.784649 0.243181 -0.370567
v -0.784649 0.243181 -0.370567
usemtl material-2

vn 1.000000 0.000000 0.000000
vn 1.000000 0.000000 0.000000
vn 1.000000 0.000000 0.000000
vn 1.000000 0.000000 0.000000
vn -1.000000 0.000000 0.000000
vn -1.000000 0.000000 0.000000
vn -1.000000 0.000000 0.000000
vn -1.000000 0.000000 0.000000
vn 0.000000 0.000000 1.000000
vn 0.000000 0.000000 1.000000
vn 0.000000 0.000000 1.000000
vn 0.000000 0.000000 -1.000000
vn 0.000000 0.000000 -1.000000
vn 0.000000 0.000000 -1.000000
vn 0.000000 -1.000000 0.000000
vn 0.000000 -1.000000 0.000000
vn 0.000000 -1.000000 0.000000
vn 0.000000 1.000000 0.000000
vn 0.000000 1.000000 0.000000
vn 0.000000 1.000000 0.000000
vn 1.000000 0.000000 0.000000
vn -1.000000 0.000000 0.000000
vn 0.000000 1.000000 0.000000
vn 0.000000 1.000000 0.000000
vn 0.000000 1.000000 0.000000
vn 0.000000 -1.000000 0.000000
vn 0.000000 -1.000000 0.000000
vn 0.000000 -1.000000 0.000000
vn 0.000000 0.000000 1.000000
vn 0.000000 0.000000 -1.000000
vn 0.000000 0.000000 1.000000
vn 0.000000 0.000000 -1.000000
vn 0.000000 -1.000000 0.000000
vn 0.000000 1.000000 0.000000
vn 1.000000 0.000000 0.000000
vn -1.000000 0.000000 0.000000
vn 0.000000 1.000000 0.000000
vn 0.000000 -1.000000 0.000000
vn 0.000000 0.000000 -1.000000
vn 0.000000 0.000000 -1.000000
vn 0.000000 0.000000 -1.000000
vn 0.000000 0.000000 1.000000
vn 0.000000 0.000000 1.000000
vn 0.000000 0.000000 1.000000
vn 0.000000 0.000000 1.000000
vn 0.000000 0.000000 -1.000000
vn 0.000000 -1.000000 0.000000
vn 0.000000 1.000000 0.000000
vn -1.000000 0.000000 0.000000
vn -1.000000 0.000000 0.000000
vn -1.000000 0.000000 0.000000
vn 1.000000 0.000000 0.000000
vn 1.000000 0.000000 0.000000
vn 1.000000 0.000000 0.000000
vn 0.000000 0.000000 -1.000000
vn 0.000000 0.000000 1.000000
vn -1.000000 0.000000 0.000000
vn -1.000000 0.000000 0.000000
vn 1.000000 0.000000 0.000000
vn 1.000000 0.000000 0.000000
vn -1.000000 0.000000 0.000000
vn 1.000000 0.000000 0.000000
vn -1.000000 0.000000 0.000000
vn 1.000000 0.000000 0.000000
vn 0.000000 0.000000 1.000000
vn 0.000000 0.000000 -1.000000
vn 0.000000 0.000000 1.000000
vn 0.000000 0.000000 -1.000000
vn 0.000000 0.000000 1.000000
vn 0.000000 0.000000 -1.000000
vn 0.000000 0.000000 1.000000
vn 0.000000 0.000000 -1.000000
vn 0.000000 0.000000 1.000000
vn 0.000000 0.000000 -1.000000
vn -1.000000 0.000000 0.000000
vn -1.000000 0.000000 0.000000
vn -1.000000 0.000000 0.000000
vn 1.000000 0.000000 0.000000
vn 1.000000 0.000000 0.000000
vn 1.000000 0.000000 0.000000
vn 1.000000 0.000000 0.000000
vn 1.000000 0.000000 0.000000
vn 1.000000 0.000000 0.000000
vn -1.000000 0.000000 0.000000
vn -1.000000 0.000000 0.000000
vn -1.000000 0.000000 0.000000
vn 0.000000 -1.000000 0.000000
vn 0.000000 -1.000000 0.000000
vn 0.000000 -1.000000 0.000000
vn 0.000000 1.000000 0.000000
vn 0.000000 1.000000 0.000000
vn 0.000000 1.000000 0.000000
vn 0.000000 1.000000 0.000000
vn 0.000000 1.000000 0.000000
vn 0.000000 1.000000 0.000000
vn 0.000000 -1.000000 0.000000
vn 0.000000 -1.000000 0.000000
vn 0.000000 -1.000000 0.000000
vn -1.000000 0.000000 0.000000
vn 1.000000 0.000000 0.000000
vn 0.000000 1.000000 0.000000
vn 0.000000 -1.000000 0.000000
vn 1.000000 0.000000 0.000000
vn -1.000000 0.000000 0.000000
vn 0.000000 -1.000000 0.000000
vn 0.000000 1.000000 0.000000
vn 0.000000 0.000000 1.000000
vn 0.000000 0.000000 1.000000
vn 0.000000 0.000000 1.000000
vn 0.000000 0.000000 -1.000000
vn 0.000000 0.000000 -1.000000
vn 0.000000 0.000000 -1.000000
vn 0.000000 0.000000 1.000000
vn 0.000000 0.000000 -1.000000

s off
f 1/1/1 2/2/2 3/3/3
f 2/2/2 1/1/1 4/4/4
f 5/5/5 6/6/6 7/7/7
f 8/8/8 7/7/7 6/6/6
f 9/9/9 10/10/10 11/11/11
f 12/12/12 13/13/13 14/14/14
f 15/15/15 16/16/16 17/17/17
f 18/18/18 19/19/19 20/20/20
f 4/4/4 1/1/1 21/21/21
f 22/22/22 7/7/7 8/8/8
f 23/23/23 24/24/24 25/25/25
f 26/26/26 27/27/27 28/28/28
f 10/10/10 9/9/9 29/29/29
f 30/30/30 14/14/14 13/13/13
f 9/9/9 11/11/11 31/31/31
f 32/32/32 12/12/12 14/14/14
f 33/33/33 16/16/16 15/15/15
f 20/20/20 19/19/19 34/34/34
f 4/4/4 21/21/21 35/35/35
f 36/36/36 22/22/22 8/8/8
f 24/24/24 23/23/23 37/37/37
f 38/38/38 28/28/28 27/27/27
f 39/39/39 40/40/40 41/41/41
f 42/42/42 43/43/43 44/44/44
f 31/31/31 11/11/11 45/45/45
f 46/46/46 12/12/12 32/32/32
f 16/16/16 33/33/33 47/47/47
f 48/48/48 34/34/34 19/19/19
f 49/49/49 50/50/50 51/51/51
f 52/52/52 53/53/53 54/54/54
f 40/40/40 39/39/39 55/55/55
f 56/56/56 44/44/44 43/43/43
f 57/57/57 58/58/58 50/50/50
f 53/53/53 59/59/59 60/60/60
f 57/57/57 49/49/49 61/61/61
f 62/62/62 54/54/54 60/60/60
f 50/50/50 49/49/49 57/57/57
f 60/60/60 54/54/54 53/53/53
f 61/61/61 49/49/49 63/63/63
f 64/64/64 54/54/54 62/62/62
f 65/65/65 29/29/29 9/9/9
f 14/14/14 30/30/30 66/66/66
f 31/31/31 67/67/67 9/9/9
f 14/14/14 68/68/68 32/32/32
f 29/29/29 65/65/65 69/69/69
f 70/70/70 66/66/66 30/30/30
f 65/65/65 9/9/9 71/71/71
f 72/72/72 14/14/14 66/66/66
f 31/31/31 73/73/73 67/67/67
f 68/68/68 74/74/74 32/32/32
f 71/71/71 9/9/9 67/67/67
f 68/68/68 14/14/14 72/72/72
f 73/73/73 69/69/69 65/65/65
f 66/66/66 70/70/70 74/74/74
f 75/75/75 76/76/76 77/77/77
f 78/78/78 79/79/79 80/80/80
f 69/69/69 73/73/73 31/31/31
f 32/32/32 74/74/74 70/70/70
f 81/81/81 82/82/82 83/83/83
f 84/84/84 85/85/85 86/86/86
f 87/87/87 88/88/88 89/89/89
f 90/90/90 91/91/91 92/92/92
f 93/93/93 94/94/94 95/95/95
f 96/96/96 97/97/97 98/98/98
f 76/76/76 75/75/75 99/99/99
f 100/100/100 80/80/80 79/79/79
f 94/94/94 93/93/93 101/101/101
f 102/102/102 98/98/98 97/97/97
f 82/82/82 81/81/81 103/103/103
f 104/104/104 86/86/86 85/85/85
f 88/88/88 87/87/87 105/105/105
f 106/106/106 92/92/92 91/91/91
f 107/107/107 108/108/108 109/109/109
f 110/110/110 111/111/111 112/112/112
f 108/108/108 107/107/107 113/113/113
f 114/114/114 112/112/112 111/111/111
