# SSTK version 0.8.0
# 71
mtllib original-71.mtl
o db1l_1_4/db1l_1/mesh14/mesh14-geometry#mesh14-geometry
v -0.492029 0.629635 -0.441181
v -0.492029 0.399858 0.500906
v -0.492029 0.629635 0.500906
v -0.492029 0.399858 -0.441181
v -0.469051 0.629635 0.500906
v -0.469051 0.399858 -0.441181
v -0.469051 0.629635 -0.441181
v -0.469051 0.399858 0.500906
vn -1 0 0
vn 1 0 0
vn 0 1 0
vn 0 -1 0
usemtl material_0_0
f 1//1 2//1 3//1
f 2//1 1//1 4//1
f 3//2 2//2 1//2
f 4//2 1//2 2//2
f 5//3 1//3 3//3
f 3//4 1//4 5//4
f 6//4 2//4 4//4
f 4//3 2//3 6//3
f 1//3 5//3 7//3
f 7//4 5//4 1//4
f 2//4 6//4 8//4
f 8//3 6//3 2//3
f 5//2 6//2 7//2
f 7//1 6//1 5//1
f 6//2 5//2 8//2
f 8//1 5//1 6//1
