# SSTK version 0.8.0
# 76
mtllib original-76.mtl
o db2gl_1_4/db2gl_1/mesh19/mesh19-geometry#mesh19-geometry
v -0.506390 0.465149 -0.464158
v -0.506390 0.439121 0.523884
v -0.506390 0.465149 0.523884
v -0.506390 0.439121 -0.464158
v -0.497773 0.470894 0.523884
v -0.497773 0.433377 -0.464158
v -0.497773 0.470894 -0.464158
v -0.497773 0.433377 0.523884
v -0.497773 0.477725 -0.464158
v -0.497773 0.426531 0.523884
v -0.497773 0.477725 0.523884
v -0.497773 0.426531 -0.464158
v -0.509262 0.477725 0.523884
v -0.509262 0.426531 -0.464158
v -0.509262 0.477725 -0.464158
v -0.509262 0.426531 0.523884
v -0.509262 0.480358 -0.464158
v -0.509262 0.424001 0.523884
v -0.509262 0.480358 0.523884
v -0.509262 0.424001 -0.464158
v -0.492029 0.480358 0.523884
v -0.492029 0.424001 -0.464158
v -0.492029 0.480358 -0.464158
v -0.492029 0.424001 0.523884
vn -1 0 0
vn 1 0 0
vn -0.5547001962252291 0.8320502943378437 0
vn 0.5547001962252291 -0.8320502943378437 0
vn -0.5547001962252291 -0.8320502943378437 0
vn 0.5547001962252291 0.8320502943378437 0
vn 0 -1 0
vn 0 1 0
usemtl material_0_0
f 1//1 2//1 3//1
f 2//1 1//1 4//1
f 3//2 2//2 1//2
f 4//2 1//2 2//2
f 5//3 1//3 3//3
f 3//4 1//4 5//4
f 6//5 2//5 4//5
f 4//6 2//6 6//6
f 1//3 5//3 7//3
f 7//4 5//4 1//4
f 2//5 6//5 8//5
f 8//6 6//6 2//6
f 5//1 9//1 7//1
f 7//2 9//2 5//2
f 6//1 10//1 8//1
f 8//2 10//2 6//2
f 9//1 5//1 11//1
f 11//2 5//2 9//2
f 10//1 6//1 12//1
f 12//2 6//2 10//2
f 13//7 9//7 11//7
f 11//8 9//8 13//8
f 14//8 10//8 12//8
f 12//7 10//7 14//7
f 9//7 13//7 15//7
f 15//8 13//8 9//8
f 10//8 14//8 16//8
f 16//7 14//7 10//7
f 13//1 17//1 15//1
f 15//2 17//2 13//2
f 14//1 18//1 16//1
f 16//2 18//2 14//2
f 17//1 13//1 19//1
f 19//2 13//2 17//2
f 18//1 14//1 20//1
f 20//2 14//2 18//2
f 21//8 17//8 19//8
f 19//7 17//7 21//7
f 22//7 18//7 20//7
f 20//8 18//8 22//8
f 17//8 21//8 23//8
f 23//7 21//7 17//7
f 18//7 22//7 24//7
f 24//8 22//8 18//8
