# SSTK version 0.8.0
# 11
mtllib original-11.mtl
o Group7/mesh55/mesh55-geometry#mesh55-geometry
v -0.314401 -0.006795 0.310199
v -0.317946 -0.005816 0.309755
v -0.317946 -0.006883 0.309755
v -0.314401 -0.005727 0.310199
v -0.320048 -0.005904 0.309313
v -0.319967 -0.006754 0.310399
v -0.318119 -0.006677 0.310789
v -0.307176 -0.006585 0.311244
v -0.314488 -0.006585 0.311244
v -0.316285 0.003242 0.360381
v -0.310832 -0.005697 0.310348
v -0.314401 0.044277 0.310199
v -0.320048 -0.006972 0.309313
v -0.320048 0.044277 0.309313
v -0.303546 -0.006677 0.310789
v -0.310832 -0.006764 0.310348
v -0.310832 -0.006555 0.311396
v -0.317946 0.044277 0.309755
v -0.317335 0.003242 0.360381
v -0.301697 -0.006754 0.310399
v -0.303718 -0.006883 0.309755
v -0.307263 -0.006795 0.310199
v -0.307263 -0.005727 0.310199
v -0.305379 0.003242 0.360381
v -0.310832 0.044277 0.310348
v -0.317946 0.045324 0.309755
v -0.321113 0.045324 0.309087
v -0.321113 -0.007017 0.309087
v -0.301617 -0.006972 0.309313
v -0.304406 0.003451 0.361428
v -0.303718 -0.005816 0.309755
v -0.307263 0.044277 0.310199
v -0.310832 0.045324 0.310348
v -0.314401 0.045324 0.310199
v -0.321113 -0.005949 0.309087
v -0.304330 0.003242 0.360381
v -0.317258 0.003451 0.361428
v -0.307263 0.045324 0.310199
v -0.304330 0.004310 0.360381
v -0.318228 0.045324 0.348265
v -0.321034 -0.005732 0.310174
v -0.300551 0.045324 0.309087
v -0.300551 -0.007017 0.309087
v -0.317335 0.004310 0.360381
v -0.303718 0.045324 0.309755
v -0.300631 -0.005732 0.310174
v -0.304406 0.045324 0.361428
v -0.317335 0.044277 0.360381
v -0.300551 -0.005949 0.309087
v -0.317258 0.045324 0.361428
v -0.303437 0.045324 0.348265
v -0.304330 0.044277 0.360381
v -0.317335 0.045324 0.360381
v -0.304330 0.045324 0.360381
v -0.317258 0.233750 0.361428
v -0.318228 0.233750 0.348265
v -0.304406 0.233750 0.361428
v -0.304330 0.233750 0.360381
v -0.317335 0.233750 0.360381
v -0.303437 0.233750 0.348265
v -0.304406 0.275622 0.361428
v -0.321113 0.233750 0.309087
v -0.310832 0.233750 0.310348
v -0.300551 0.233750 0.309087
v -0.317258 0.275622 0.361428
v -0.300551 0.286090 0.309087
v -0.321113 0.286090 0.309087
v -0.314401 0.233750 0.310199
v -0.307263 0.233750 0.310199
v -0.320786 0.233750 0.309157
v -0.300878 0.233750 0.309157
v -0.303718 0.233750 0.309755
v -0.310832 0.285838 0.310348
v -0.300878 0.286090 0.309157
v -0.303718 0.285956 0.309755
v -0.317946 0.233750 0.309755
v -0.307263 0.285868 0.310199
v -0.314401 0.285868 0.310199
v -0.317946 0.285956 0.309755
vn -0.08298597627443725 0 0.996550715087686
vn -0.1653999292477971 0 0.986226578127371
vn 0.1653999292477971 0 -0.986226578127371
vn 0.08298597627443725 0 -0.996550715087686
vn -0.20621398320954265 0 0.9785069203275235
vn 0.20621398320954265 0 -0.9785069203275235
vn 0 -0.9805807141524284 0.196115942830544
vn 0 0.9805807141524284 -0.196115942830544
vn 0 0 1
vn 0 0 -1
vn 0.1653999292477971 0 0.986226578127371
vn 0.08298597627443725 0 0.996550715087686
vn -0.08298597627443725 0 -0.996550715087686
vn -0.1653999292477971 0 -0.986226578127371
vn 0.1517210539542922 0 0.9884233514982328
vn -0.1517210539542922 0 -0.9884233514982328
vn 0.06917198265135766 0 0.9976047497962709
vn -0.06917198265135766 0 -0.9976047497962709
vn -0.9972978703014205 0 0.07346399044600867
vn 0.9972978703014205 0 -0.07346399044600867
vn 0.20621398320954265 0 0.9785069203275235
vn -0.20621398320954265 0 -0.9785069203275235
vn 0.9972978703014205 0 0.07346399044600867
vn -0.9972978703014205 0 -0.07346399044600867
vn 0 1 0
vn 0 -1 0
vn -0.00023200001703054188 0.9805750719815672 0.19614401439844228
vn 0.00023200001703054188 -0.9805750719815672 -0.19614401439844228
usemtl material_0_0
f 1//1 2//2 3//2
f 2//2 1//1 4//1
f 3//3 2//3 1//4
f 4//4 1//4 2//3
f 5//5 3//2 2//2
f 2//3 3//3 5//6
f 6//7 3//7 1//7
f 7//7 8//7 9//7
f 1//8 3//8 6//8
f 9//8 8//8 7//8
f 10//7 7//7 9//7
f 9//8 7//8 10//8
f 1//1 11//9 4//1
f 4//4 11//10 1//4
f 12//1 2//2 4//1
f 4//4 2//3 12//4
f 3//2 5//5 13//5
f 13//6 5//6 3//3
f 2//2 14//5 5//5
f 5//6 14//6 2//3
f 3//7 6//7 13//7
f 6//7 15//7 7//7
f 13//8 6//8 3//8
f 7//8 15//8 6//8
f 7//7 10//7 6//7
f 6//8 10//8 7//8
f 6//7 1//7 16//7
f 16//8 1//8 6//8
f 7//7 15//7 8//7
f 8//8 15//8 7//8
f 9//7 8//7 17//7
f 17//8 8//8 9//8
f 10//7 9//7 17//7
f 17//8 9//8 10//8
f 11//9 1//1 16//9
f 16//10 1//4 11//10
f 11//9 12//1 4//1
f 4//4 12//4 11//10
f 2//2 12//1 18//2
f 18//3 12//4 2//3
f 14//5 13//5 5//5
f 5//6 13//6 14//6
f 14//5 2//2 18//2
f 18//3 2//3 14//6
f 19//7 13//7 6//7
f 6//8 13//8 19//8
f 6//7 20//7 15//7
f 15//8 20//8 6//8
f 19//7 6//7 10//7
f 10//8 6//8 19//8
f 6//7 16//7 20//7
f 20//8 16//8 6//8
f 21//7 20//7 22//7
f 22//8 20//8 21//8
f 21//11 23//12 22//12
f 15//7 24//7 8//7
f 8//8 24//8 15//8
f 22//13 23//13 21//14
f 8//7 24//7 17//7
f 17//8 24//8 8//8
f 10//7 17//7 24//7
f 24//8 17//8 10//8
f 22//12 11//9 16//9
f 16//10 11//10 22//13
f 12//1 11//9 25//9
f 25//10 11//10 12//4
f 12//1 26//2 18//2
f 18//3 26//3 12//4
f 27//5 13//5 14//5
f 14//6 13//6 27//6
f 26//2 14//5 18//2
f 18//3 14//6 26//3
f 13//7 19//7 28//7
f 28//8 19//8 13//8
f 20//7 21//7 29//7
f 29//8 21//8 20//8
f 10//7 30//7 19//7
f 19//8 30//8 10//8
f 22//7 20//7 16//7
f 16//8 20//8 22//8
f 23//12 21//11 31//15
f 31//16 21//14 23//13
f 11//9 22//12 23//12
f 23//13 22//13 11//10
f 24//7 15//7 20//7
f 20//8 15//8 24//8
f 31//15 32//17 23//12
f 23//13 32//18 31//16
f 10//8 30//8 24//8
f 23//12 25//9 11//9
f 11//10 25//10 23//13
f 33//9 12//1 25//9
f 25//10 12//4 33//10
f 26//2 12//1 34//1
f 34//4 12//4 26//3
f 35//5 13//5 27//5
f 27//6 13//6 35//6
f 27//5 14//5 26//2
f 26//3 14//6 27//6
f 19//19 35//19 28//19
f 28//20 35//20 19//20
f 13//5 35//5 28//5
f 28//6 35//6 13//6
f 29//21 31//15 21//11
f 21//14 31//16 29//22
f 29//7 36//7 20//7
f 20//8 36//8 29//8
f 24//7 30//7 10//7
f 37//8 30//8 19//8
f 19//7 30//7 37//7
f 20//7 36//7 24//7
f 24//8 36//8 20//8
f 32//17 31//15 38//12
f 38//13 31//16 32//18
f 25//9 23//12 32//17
f 32//18 23//13 25//10
f 36//8 24//8 30//8
f 39//23 30//23 36//23
f 36//24 30//24 39//24
f 12//1 33//9 34//1
f 34//4 33//10 12//4
f 32//17 33//9 25//9
f 25//10 33//10 32//18
f 26//25 40//25 34//25
f 34//26 40//26 26//26
f 41//19 27//19 35//19
f 35//20 27//20 41//20
f 40//25 26//25 27//25
f 27//26 26//26 40//26
f 35//19 19//19 41//19
f 41//20 19//20 35//20
f 42//21 31//15 29//21
f 29//22 31//16 42//22
f 36//7 29//7 43//7
f 43//8 29//8 36//8
f 30//7 24//7 36//7
f 37//19 44//19 19//19
f 19//20 44//20 37//20
f 38//12 31//15 45//11
f 45//14 31//16 38//13
f 33//9 32//17 38//12
f 38//13 32//18 33//10
f 36//23 46//23 39//23
f 39//24 46//24 36//24
f 30//23 39//23 47//23
f 47//24 39//24 30//24
f 34//25 40//25 33//25
f 33//26 40//26 34//26
f 27//19 41//19 44//19
f 44//20 41//20 27//20
f 27//19 48//19 40//19
f 40//20 48//20 27//20
f 41//19 19//19 44//19
f 44//20 19//20 41//20
f 31//15 42//21 45//11
f 45//14 42//22 31//16
f 42//21 29//21 43//21
f 43//22 29//22 42//22
f 49//23 36//23 43//23
f 43//24 36//24 49//24
f 44//19 37//19 50//19
f 50//20 37//20 44//20
f 51//25 45//25 38//25
f 38//26 45//26 51//26
f 51//25 38//25 33//25
f 33//26 38//26 51//26
f 36//23 49//23 46//23
f 46//24 49//24 36//24
f 46//23 42//23 39//23
f 39//24 42//24 46//24
f 47//23 39//23 52//23
f 52//24 39//24 47//24
f 50//9 30//9 47//9
f 47//10 30//10 50//10
f 51//25 33//25 40//25
f 40//26 33//26 51//26
f 27//19 44//19 48//19
f 48//20 44//20 27//20
f 40//19 48//19 53//19
f 53//20 48//20 40//20
f 45//25 51//25 42//25
f 42//26 51//26 45//26
f 42//21 43//21 49//21
f 49//22 43//22 42//22
f 30//9 50//9 37//9
f 37//10 50//10 30//10
f 44//19 50//19 48//19
f 48//20 50//20 44//20
f 42//23 46//23 49//23
f 49//24 46//24 42//24
f 39//23 42//23 52//23
f 52//24 42//24 39//24
f 52//23 42//23 54//23
f 54//24 42//24 52//24
f 47//23 52//23 54//23
f 54//24 52//24 47//24
f 54//25 53//25 50//25
f 54//25 50//25 47//25
f 54//26 53//26 51//26
f 50//26 53//26 54//26
f 47//26 50//26 54//26
f 47//9 55//9 50//9
f 50//10 55//10 47//10
f 53//25 51//25 40//25
f 40//26 51//26 53//26
f 56//10 51//10 40//10
f 40//9 51//9 56//9
f 48//19 50//19 53//19
f 53//19 56//19 40//19
f 40//20 56//20 53//20
f 54//23 42//23 51//23
f 51//24 42//24 54//24
f 53//20 50//20 48//20
f 54//23 57//23 47//23
f 47//24 57//24 54//24
f 51//25 53//25 54//25
f 55//19 53//19 50//19
f 50//20 53//20 55//20
f 51//23 58//23 54//23
f 54//24 58//24 51//24
f 55//9 47//9 57//9
f 57//10 47//10 55//10
f 59//20 55//20 53//20
f 51//10 56//10 60//10
f 60//9 56//9 51//9
f 56//19 53//19 59//19
f 59//20 53//20 56//20
f 57//23 54//23 58//23
f 58//24 54//24 57//24
f 53//19 55//19 59//19
f 58//23 51//23 60//23
f 60//24 51//24 58//24
f 61//9 55//9 57//9
f 57//10 55//10 61//10
f 62//19 59//19 55//19
f 55//20 59//20 62//20
f 56//26 63//26 60//26
f 60//25 63//25 56//25
f 59//19 62//19 56//19
f 56//20 62//20 59//20
f 60//23 57//23 58//23
f 58//24 57//24 60//24
f 57//23 60//23 64//23
f 64//24 60//24 57//24
f 55//9 61//9 65//9
f 65//10 61//10 55//10
f 57//23 66//23 61//23
f 61//24 66//24 57//24
f 62//19 55//19 67//19
f 67//20 55//20 62//20
f 56//26 68//26 63//26
f 63//25 68//25 56//25
f 69//26 60//26 63//26
f 63//25 60//25 69//25
f 62//25 56//25 70//25
f 60//26 71//26 64//26
f 71//26 60//26 72//26
f 64//25 71//25 60//25
f 72//25 60//25 71//25
f 57//23 64//23 66//23
f 66//24 64//24 57//24
f 61//27 73//27 65//27
f 65//28 73//28 61//28
f 67//19 55//19 65//19
f 65//20 55//20 67//20
f 74//27 61//27 66//27
f 61//27 74//27 75//27
f 66//28 61//28 74//28
f 75//28 74//28 61//28
f 56//26 76//26 68//26
f 68//25 76//25 56//25
f 72//26 60//26 69//26
f 69//25 60//25 72//25
f 70//26 56//26 62//26
f 56//26 70//26 76//26
f 76//25 70//25 56//25
f 61//27 77//27 73//27
f 73//28 77//28 61//28
f 78//27 65//27 73//27
f 73//28 65//28 78//28
f 65//27 79//27 67//27
f 67//28 79//28 65//28
f 61//27 75//27 77//27
f 77//28 75//28 61//28
f 79//27 65//27 78//27
f 78//28 65//28 79//28
